<?xml version="1.0" encoding="UTF-8"?>
<svg width="40px" height="40px" viewBox="0 0 40 40" version="1.1" xmlns="http://www.w3.org/2000/svg" xmlns:xlink="http://www.w3.org/1999/xlink">
    <title>arrow_up</title>
    <g id="Desktop" stroke="none" stroke-width="1" fill="none" fill-rule="evenodd">
        <g id="guideline" transform="translate(-594.000000, -187.000000)">
            <g id="Icons" transform="translate(440.000000, 166.000000)">
                <g id="arrow_up" transform="translate(154.000000, 21.000000)">
                    <rect id="bloc" fill="#F3F3F3" fill-rule="nonzero" x="0" y="0" width="40" height="40"></rect>
                    <path d="M12.7446802,20.4893603 C12.0156285,20.4893603 11.3193839,20.1992509 10.8047402,19.6846201 C10.2901095,19.1699893 10,18.4712131 10,17.7446802 C10,17.0156285 10.2901095,16.3193839 10.8047402,15.8047402 C11.3193645,15.2901095 12.0181472,15 12.7446802,15 L27.3360457,15 C28.0424295,15 28.720979,15.2800155 29.2205108,15.7794892 C29.7200039,16.2789822 30,16.9575705 30,17.6639543 L30,32.2553198 C30,32.9843715 29.7098905,33.6806161 29.1952598,34.1952598 C28.680629,34.7098841 27.9818528,35 27.2553198,35 C26.5262682,35 25.8300236,34.7098905 25.3153799,34.1952598 C24.8007491,33.680629 24.5106397,32.9818528 24.5106397,32.2553198 L24.5106397,24.4223256 C24.5106397,24.4223256 24.7253615,22.5364247 23.6895615,21.5006247 C22.9990281,20.8100914 21.9617755,20.4730463 20.5778036,20.4894895 L12.7446802,20.4893603 Z" id="icon-^" fill="#000000" transform="translate(20.000000, 25.000000) rotate(-45.000000) translate(-20.000000, -25.000000) "></path>
                </g>
            </g>
        </g>
    </g>
</svg>