<?xml version="1.0" encoding="UTF-8"?>
<svg width="16px" height="16px" viewBox="0 0 16 16" version="1.1" xmlns="http://www.w3.org/2000/svg" xmlns:xlink="http://www.w3.org/1999/xlink">
    <title>icon_magnify</title>
    <g id="Desktop" stroke="none" stroke-width="1" fill="none" fill-rule="evenodd">
        <g id="guideline" transform="translate(-866.000000, -199.000000)" fill="#4A4A4A">
            <g id="Icons" transform="translate(440.000000, 166.000000)">
                <path d="M428.037295,39.1118857 C428.037295,36.8615505 429.861551,35.0372952 432.111886,35.0372952 C434.362231,35.0372952 436.186476,36.8615505 436.186476,39.1118857 C436.186476,41.3622311 434.362231,43.1864762 432.111886,43.1864762 C429.861551,43.1864762 428.037295,41.3622311 428.037295,39.1118857 Z M432.111886,33 C428.736383,33 426,35.7363829 426,39.1118857 C426,42.4873783 428.736383,45.2237714 432.111886,45.2237714 C433.4319,45.2237714 434.654125,44.805311 435.653265,44.0938365 L440.559429,49 L442,47.5594285 L437.093837,42.6532651 C437.805311,41.6541246 438.223771,40.4319002 438.223771,39.1118857 C438.223771,35.7363829 435.487378,33 432.111886,33 Z" id="icon_magnify"></path>
            </g>
        </g>
    </g>
</svg>