<?xml version="1.0" encoding="UTF-8"?>
<svg width="15px" height="15px" viewBox="0 0 15 15" version="1.1" xmlns="http://www.w3.org/2000/svg" xmlns:xlink="http://www.w3.org/1999/xlink">
    <title>icon_pencil</title>
    <g id="Desktop" stroke="none" stroke-width="1" fill="none" fill-rule="evenodd">
        <g id="guideline" transform="translate(-788.000000, -199.000000)" fill="#4A4A4A">
            <g id="Icons" transform="translate(440.000000, 166.000000)">
                <path d="M350.037376,43.2945146 C349.569905,43.7639142 349.216609,44.3372602 349.00657,44.9696914 L348,48 C348.041469,47.9928879 348.090478,47.9824933 348.142719,47.9699103 C348.44539,47.8944124 348.963486,47.7352104 349.866652,47.4332191 C349.866652,47.4332191 351.090263,47.0239988 351.090263,47.0239988 C351.707454,46.8177475 352.269711,46.4687067 352.732335,46.0047779 L360.588324,38.122912 L357.890134,35.4159311 L350.037376,43.2945146 Z M361.002477,37.7071267 L362.870745,35.8328106 C362.953145,35.7502006 363,35.638048 363,35.5209716 C363,35.4038953 362.953145,35.2917427 362.870745,35.2085856 C362.295562,34.63141 361.375162,33.7079291 360.799978,33.1313006 C360.716502,33.0470494 360.602327,33 360.483843,33 C360.36536,33 360.251723,33.0470494 360.167708,33.1313006 L358.304287,35.0001459 L361.002477,37.7071267 Z" id="icon_pencil"></path>
            </g>
        </g>
    </g>
</svg>