<?xml version="1.0" encoding="UTF-8"?>
<svg width="80px" height="58px" viewBox="0 0 80 58" version="1.1" xmlns="http://www.w3.org/2000/svg" xmlns:xlink="http://www.w3.org/1999/xlink">
    <title>icon_poster</title>
    <g id="Desktop" stroke="none" stroke-width="1" fill="none" fill-rule="evenodd">
        <g id="guideline" transform="translate(-672.000000, -167.000000)" fill="#E1E1E1" fill-rule="nonzero">
            <g id="Icons" transform="translate(440.000000, 166.000000)">
                <path d="M280.805444,1 L281.401795,56.0846066 L234.289013,58.0463152 L232,3.03161825 L280.805444,1 Z M284.360247,8.28331965 L312,14.3813521 L301.484946,55.921484 L282.49281,55.8505151 L284.360247,8.28331965 Z M241.513015,50.0935572 L237.075868,50.2778646 L237.265471,54.8336467 L241.702619,54.6493393 L241.513015,50.0935572 Z M296.075418,48.5460106 L295.287345,52.8867675 L299.831475,53.7119138 L300.620607,49.371157 L296.075418,48.5460106 Z M277.777083,48.6424013 L273.004158,48.7218441 L273.081482,53.280804 L277.853349,53.2003019 L277.777083,48.6424013 Z M241.218547,43.0337367 L236.782459,43.2180441 L236.971003,47.772767 L241.407092,47.5895188 L241.218547,43.0337367 Z M297.297778,41.8177316 L296.510765,46.1595477 L301.055954,46.9836348 L301.842968,42.6428779 L297.297778,41.8177316 Z M277.65739,41.5762254 L272.886582,41.6567275 L272.962847,46.2146281 L277.734714,46.1351852 L277.65739,41.5762254 Z M240.926198,35.9739163 L236.48905,36.1571644 L236.678654,40.7129465 L241.115801,40.5275799 L240.926198,35.9739163 Z M298.679024,34.2219368 L297.889892,38.5637529 L302.432963,39.3888992 L303.222096,35.0481424 L298.679024,34.2219368 Z M277.539814,34.5111088 L272.766888,34.5905516 L272.843153,39.1505707 L277.617138,39.0700686 L277.539814,34.5111088 Z M240.593597,28.002092 L236.157509,28.1863994 L236.348171,32.7421815 L240.78426,32.5568149 L240.593597,28.002092 Z M299.901385,27.4947171 L299.112253,31.8354739 L303.657442,32.6616794 L304.445515,28.3209226 L299.901385,27.4947171 Z M277.403172,26.5350475 L272.631306,26.6155496 L272.707571,31.172391 L277.480497,31.0918889 L277.403172,26.5350475 Z M301.122686,20.766438 L300.333554,25.1071949 L304.878744,25.9334004 L305.666817,21.5915844 L301.122686,20.766438 Z M240.300188,20.9412123 L235.863041,21.1265789 L236.052644,25.6813018 L240.488732,25.4959352 L240.300188,20.9412123 Z M277.283479,19.4688716 L272.510553,19.5493737 L272.587877,24.1072743 L277.360803,24.0267722 L277.283479,19.4688716 Z M302.345047,14.0402775 L301.555915,18.3799751 L306.101104,19.2061807 L306.888118,14.8654238 L302.345047,14.0402775 Z M240.00572,13.8813918 L235.569632,14.0656992 L235.759235,18.6204221 L240.195323,18.437174 L240.00572,13.8813918 Z M277.163785,12.403755 L272.391918,12.4853163 L272.469242,17.0432169 L277.241109,16.9627148 L277.163785,12.403755 Z M239.712311,6.82157138 L235.276223,7.00693801 L235.465826,11.5616609 L239.901915,11.3762943 L239.712311,6.82157138 Z M277.046209,5.33863835 L272.272224,5.42019967 L272.349548,9.97810026 L277.121415,9.89759818 L277.046209,5.33863835 Z" id="icon_poster"></path>
            </g>
        </g>
    </g>
</svg>